<svg width="300" height="119" viewBox="0 0 300 119" fill="none" xmlns="http://www.w3.org/2000/svg">
<rect width="300" height="104" fill="#F8F8F8"/>
<g filter="url(#filter0_d)">
<path fill-rule="evenodd" clip-rule="evenodd" d="M291.062 103.959H187L245.347 19.2888C246.287 17.9245 248.149 17.5902 249.505 18.5421L300 53.9863V90.9892L291.062 103.959Z" fill="#3F4143"/>
</g>
<path d="M253.501 50.0521L252.278 49.1701L255.354 44.9057L250.703 41.5513L247.627 45.8157L246.411 44.9382L253.065 35.7124L254.281 36.5899L251.42 40.5565L256.071 43.9109L258.932 39.9443L260.155 40.8263L253.501 50.0521ZM256.708 52.3647L255.491 51.4873L262.145 42.2614L263.362 43.1389L256.708 52.3647ZM266.904 45.6937L264.491 55.3967L272.936 50.0444L274.514 51.1823L267.86 60.4081L266.643 59.5307L269.235 55.9379L272.145 52.1423L263.729 57.4285L262.797 56.7567L265.149 47.1252L262.486 51.0709L259.895 54.6636L258.678 53.7862L265.332 44.5603L266.904 45.6937ZM278.039 61.2669L274.041 58.3832L271.683 61.6528L276.327 65.0026L275.61 65.9974L269.748 61.7702L276.402 52.5444L282.2 56.7259L281.478 57.7271L276.897 54.423L274.758 57.3884L278.756 60.2721L278.039 61.2669ZM276.864 66.9025L283.518 57.6767L286.123 59.555C286.925 60.1338 287.507 60.8231 287.868 61.6227C288.229 62.4224 288.34 63.2699 288.201 64.1654C288.067 65.0639 287.696 65.9392 287.088 66.7913L286.663 67.3806C286.035 68.2508 285.316 68.8914 284.506 69.3025C283.7 69.7165 282.858 69.8734 281.98 69.7731C281.106 69.6759 280.252 69.3329 279.418 68.7442L276.864 66.9025ZM284.013 59.5553L278.799 66.7851L280.079 67.7083C281.016 68.3846 281.955 68.6187 282.895 68.4105C283.839 68.2053 284.7 67.5642 285.477 66.487L285.865 65.9484C286.621 64.9007 286.96 63.9093 286.884 62.9742C286.814 62.0378 286.33 61.2394 285.432 60.579L284.013 59.5553ZM286.426 73.7988L285.21 72.9214L291.864 63.6956L293.08 64.573L286.426 73.7988Z" fill="white"/>
<path d="M30.736 41H28.792V35.132H22.654V41H20.71V28.148H22.654V33.476H28.792V28.148H30.736V41ZM37.7748 41H32.7888V39.884L34.3188 39.434V29.732L32.7888 29.264V28.148H37.7748V29.264L36.2628 29.732V39.434L37.7748 39.884V41ZM45.4161 41L41.5281 30.074H41.4561C41.4681 30.326 41.4861 30.656 41.5101 31.064C41.5341 31.46 41.5521 31.892 41.5641 32.36C41.5761 32.828 41.5821 33.29 41.5821 33.746V41H39.8181V28.148H42.5901L46.2801 38.462H46.3521L50.1501 28.148H52.9221V41H51.0321V33.638C51.0321 33.23 51.0381 32.804 51.0501 32.36C51.0741 31.904 51.0921 31.478 51.1041 31.082C51.1281 30.686 51.1461 30.356 51.1581 30.092H51.0861L47.0901 41H45.4161ZM63.2176 41H55.9816V28.148H63.2176V29.804H57.9256V33.476H62.8936V35.114H57.9256V39.326H63.2176V41ZM76.0451 34.448C76.0451 36.62 75.4451 38.258 74.2451 39.362C73.0571 40.454 71.3891 41 69.2411 41H65.6411V28.148H69.6191C70.9271 28.148 72.0611 28.388 73.0211 28.868C73.9811 29.348 74.7251 30.056 75.2531 30.992C75.7811 31.916 76.0451 33.068 76.0451 34.448ZM74.0111 34.502C74.0111 32.882 73.6151 31.694 72.8231 30.938C72.0431 30.17 70.9331 29.786 69.4931 29.786H67.5851V39.362H69.1511C72.3911 39.362 74.0111 37.742 74.0111 34.502ZM82.4423 41H77.4563V39.884L78.9863 39.434V29.732L77.4563 29.264V28.148H82.4423V29.264L80.9303 29.732V39.434L82.4423 39.884V41ZM96.1813 37.526C96.1813 38.666 95.7673 39.56 94.9393 40.208C94.1113 40.856 92.9773 41.18 91.5373 41.18C90.8413 41.18 90.1813 41.12 89.5573 41C88.9453 40.892 88.4233 40.73 87.9913 40.514V38.678C88.4713 38.894 89.0353 39.092 89.6833 39.272C90.3313 39.44 90.9913 39.524 91.6633 39.524C92.5273 39.524 93.1753 39.356 93.6073 39.02C94.0393 38.684 94.2553 38.234 94.2553 37.67C94.2553 37.274 94.1533 36.944 93.9493 36.68C93.7573 36.404 93.4513 36.152 93.0313 35.924C92.6113 35.696 92.0593 35.444 91.3753 35.168C90.7393 34.928 90.1753 34.646 89.6833 34.322C89.2033 33.998 88.8253 33.596 88.5493 33.116C88.2733 32.636 88.1353 32.048 88.1353 31.352C88.1353 30.296 88.5193 29.468 89.2873 28.868C90.0553 28.268 91.0633 27.968 92.3113 27.968C93.0073 27.968 93.6493 28.04 94.2373 28.184C94.8373 28.316 95.4073 28.502 95.9473 28.742L95.3353 30.344C94.8433 30.14 94.3393 29.972 93.8233 29.84C93.3193 29.708 92.7973 29.642 92.2573 29.642C91.5493 29.642 91.0093 29.798 90.6373 30.11C90.2653 30.422 90.0793 30.83 90.0793 31.334C90.0793 31.73 90.1693 32.066 90.3493 32.342C90.5293 32.606 90.8173 32.846 91.2133 33.062C91.6093 33.278 92.1313 33.518 92.7793 33.782C93.4993 34.07 94.1113 34.376 94.6153 34.7C95.1313 35.012 95.5213 35.396 95.7853 35.852C96.0493 36.296 96.1813 36.854 96.1813 37.526ZM102.658 41H100.714V29.822H96.8618V28.148H106.51V29.822H102.658V41ZM119.109 34.556C119.109 35.888 118.887 37.052 118.443 38.048C117.999 39.032 117.333 39.8 116.445 40.352C115.557 40.904 114.453 41.18 113.133 41.18C111.777 41.18 110.655 40.904 109.767 40.352C108.879 39.8 108.219 39.026 107.787 38.03C107.355 37.034 107.139 35.87 107.139 34.538C107.139 33.218 107.355 32.066 107.787 31.082C108.231 30.098 108.897 29.33 109.785 28.778C110.673 28.226 111.795 27.95 113.151 27.95C114.471 27.95 115.569 28.226 116.445 28.778C117.333 29.318 117.999 30.086 118.443 31.082C118.887 32.066 119.109 33.224 119.109 34.556ZM109.191 34.556C109.191 36.092 109.509 37.304 110.145 38.192C110.781 39.08 111.777 39.524 113.133 39.524C114.501 39.524 115.497 39.08 116.121 38.192C116.745 37.304 117.057 36.092 117.057 34.556C117.057 33.02 116.745 31.814 116.121 30.938C115.509 30.062 114.519 29.624 113.151 29.624C111.783 29.624 110.781 30.062 110.145 30.938C109.509 31.814 109.191 33.02 109.191 34.556ZM125.142 28.148C126.786 28.148 127.998 28.454 128.778 29.066C129.57 29.678 129.966 30.608 129.966 31.856C129.966 32.516 129.84 33.074 129.588 33.53C129.348 33.974 129.036 34.34 128.652 34.628C128.268 34.904 127.866 35.126 127.446 35.294L131.046 41H128.814L125.718 35.798H123.486V41H121.542V28.148H125.142ZM125.016 29.804H123.486V34.178H125.106C126.102 34.178 126.828 33.992 127.284 33.62C127.74 33.236 127.968 32.672 127.968 31.928C127.968 31.16 127.728 30.614 127.248 30.29C126.768 29.966 126.024 29.804 125.016 29.804ZM136.118 34.16L139.268 28.148H141.356L137.072 36.014V41H135.146V36.086L130.862 28.148H132.968L136.118 34.16Z" fill="black"/>
<path opacity="0.8" d="M25.751 57.1445H22.7725L22.1035 59H21.1367L23.8516 51.8906H24.6719L27.3916 59H26.4297L25.751 57.1445ZM23.0557 56.373H25.4727L24.2617 53.0479L23.0557 56.373ZM31.0832 57.5986C31.0832 57.3545 30.9904 57.1657 30.8049 57.0322C30.6226 56.8955 30.302 56.7783 29.843 56.6807C29.3872 56.583 29.0243 56.4658 28.7541 56.3291C28.4872 56.1924 28.2886 56.0296 28.1584 55.8408C28.0314 55.652 27.968 55.4274 27.968 55.167C27.968 54.734 28.1503 54.3678 28.5148 54.0684C28.8827 53.7689 29.3514 53.6191 29.9211 53.6191C30.5201 53.6191 31.0051 53.7738 31.3762 54.083C31.7505 54.3923 31.9377 54.7878 31.9377 55.2695H31.0295C31.0295 55.0221 30.9237 54.8089 30.7121 54.6299C30.5038 54.4508 30.2401 54.3613 29.9211 54.3613C29.5923 54.3613 29.3352 54.4329 29.1496 54.5762C28.9641 54.7194 28.8713 54.9066 28.8713 55.1377C28.8713 55.3558 28.9576 55.5202 29.1301 55.6309C29.3026 55.7415 29.6135 55.8473 30.0627 55.9482C30.5152 56.0492 30.8814 56.1696 31.1613 56.3096C31.4413 56.4495 31.648 56.6188 31.7814 56.8174C31.9182 57.0127 31.9865 57.252 31.9865 57.5352C31.9865 58.0072 31.7977 58.3864 31.4201 58.6729C31.0425 58.9561 30.5526 59.0977 29.9504 59.0977C29.5272 59.0977 29.1529 59.0228 28.8273 58.873C28.5018 58.7233 28.2463 58.515 28.0607 58.248C27.8785 57.9779 27.7873 57.6865 27.7873 57.374H28.6906C28.7069 57.6768 28.8273 57.9176 29.052 58.0967C29.2798 58.2725 29.5793 58.3604 29.9504 58.3604C30.2922 58.3604 30.5656 58.292 30.7707 58.1553C30.979 58.0153 31.0832 57.8298 31.0832 57.5986ZM38.5055 59C38.4534 58.8958 38.4111 58.7103 38.3785 58.4434C37.9586 58.8796 37.4573 59.0977 36.8746 59.0977C36.3538 59.0977 35.9257 58.9512 35.5904 58.6582C35.2584 58.362 35.0924 57.9876 35.0924 57.5352C35.0924 56.985 35.3007 56.5586 35.7174 56.2559C36.1373 55.9499 36.7265 55.7969 37.485 55.7969H38.3639V55.3818C38.3639 55.0661 38.2695 54.8154 38.0807 54.6299C37.8919 54.4411 37.6135 54.3467 37.2457 54.3467C36.9234 54.3467 36.6533 54.4281 36.4352 54.5908C36.2171 54.7536 36.108 54.9505 36.108 55.1816H35.1998C35.1998 54.918 35.2926 54.6641 35.4781 54.4199C35.6669 54.1725 35.9208 53.9772 36.2398 53.834C36.5621 53.6908 36.9153 53.6191 37.2994 53.6191C37.9081 53.6191 38.385 53.7721 38.7301 54.0781C39.0751 54.3809 39.2542 54.7992 39.2672 55.333V57.7646C39.2672 58.2497 39.329 58.6354 39.4527 58.9219V59H38.5055ZM37.0064 58.3115C37.2896 58.3115 37.5582 58.2383 37.8121 58.0918C38.066 57.9453 38.2499 57.7549 38.3639 57.5205V56.4365H37.6559C36.5491 56.4365 35.9957 56.7604 35.9957 57.4082C35.9957 57.6914 36.0901 57.9128 36.2789 58.0723C36.4677 58.2318 36.7102 58.3115 37.0064 58.3115ZM44.8828 58.3604C45.2051 58.3604 45.4867 58.2627 45.7275 58.0674C45.9684 57.8721 46.1019 57.6279 46.1279 57.335H46.9824C46.9661 57.6377 46.862 57.9258 46.6699 58.1992C46.4779 58.4727 46.2207 58.6908 45.8984 58.8535C45.5794 59.0163 45.2409 59.0977 44.8828 59.0977C44.1634 59.0977 43.5905 58.8584 43.1641 58.3799C42.7409 57.8981 42.5293 57.2406 42.5293 56.4072V56.2559C42.5293 55.7415 42.6237 55.2842 42.8125 54.8838C43.0013 54.4834 43.2715 54.1725 43.623 53.9512C43.9779 53.7298 44.3962 53.6191 44.8779 53.6191C45.4704 53.6191 45.9619 53.7965 46.3525 54.1514C46.7464 54.5062 46.9564 54.9668 46.9824 55.5332H46.1279C46.1019 55.1914 45.9717 54.9115 45.7373 54.6934C45.5062 54.472 45.2197 54.3613 44.8779 54.3613C44.4189 54.3613 44.0625 54.5273 43.8086 54.8594C43.5579 55.1882 43.4326 55.665 43.4326 56.29V56.4609C43.4326 57.0697 43.5579 57.5384 43.8086 57.8672C44.0592 58.196 44.4173 58.3604 44.8828 58.3604ZM47.5588 56.3096C47.5588 55.792 47.6597 55.3265 47.8615 54.9131C48.0666 54.4997 48.3498 54.1807 48.7111 53.9561C49.0757 53.7314 49.4908 53.6191 49.9562 53.6191C50.6757 53.6191 51.2567 53.8682 51.6994 54.3662C52.1454 54.8643 52.3684 55.5267 52.3684 56.3535V56.417C52.3684 56.9313 52.2691 57.3936 52.0705 57.8037C51.8752 58.2106 51.5936 58.528 51.2258 58.7559C50.8612 58.9837 50.4413 59.0977 49.966 59.0977C49.2499 59.0977 48.6688 58.8486 48.2229 58.3506C47.7801 57.8525 47.5588 57.1934 47.5588 56.373V56.3096ZM48.467 56.417C48.467 57.0029 48.6021 57.4733 48.8723 57.8281C49.1457 58.1829 49.5103 58.3604 49.966 58.3604C50.425 58.3604 50.7896 58.1813 51.0598 57.8232C51.3299 57.4619 51.465 56.9574 51.465 56.3096C51.465 55.7301 51.3267 55.2614 51.05 54.9033C50.7766 54.542 50.412 54.3613 49.9562 54.3613C49.5103 54.3613 49.1506 54.5387 48.8771 54.8936C48.6037 55.2484 48.467 55.7562 48.467 56.417ZM54.1508 53.7168L54.1752 54.3027C54.5626 53.847 55.085 53.6191 55.7426 53.6191C56.4815 53.6191 56.9844 53.9023 57.2514 54.4688C57.4271 54.2148 57.655 54.0098 57.935 53.8535C58.2182 53.6973 58.5518 53.6191 58.9359 53.6191C60.0948 53.6191 60.684 54.2327 60.7035 55.46V59H59.8002V55.5137C59.8002 55.1361 59.7139 54.8545 59.5414 54.6689C59.3689 54.4801 59.0792 54.3857 58.6723 54.3857C58.337 54.3857 58.0587 54.4867 57.8373 54.6885C57.616 54.887 57.4874 55.1556 57.4516 55.4941V59H56.5434V55.5381C56.5434 54.7699 56.1674 54.3857 55.4154 54.3857C54.823 54.3857 54.4177 54.638 54.1996 55.1426V59H53.2963V53.7168H54.1508ZM66.3336 56.417C66.3336 57.221 66.1497 57.8688 65.7818 58.3604C65.414 58.8519 64.916 59.0977 64.2877 59.0977C63.6464 59.0977 63.1419 58.8942 62.774 58.4873V61.0312H61.8707V53.7168H62.6959L62.7398 54.3027C63.1077 53.847 63.6188 53.6191 64.273 53.6191C64.9078 53.6191 65.4091 53.8584 65.777 54.3369C66.148 54.8154 66.3336 55.4811 66.3336 56.334V56.417ZM65.4303 56.3145C65.4303 55.7188 65.3033 55.2484 65.0494 54.9033C64.7955 54.5583 64.4472 54.3857 64.0045 54.3857C63.4576 54.3857 63.0475 54.6283 62.774 55.1133V57.6377C63.0442 58.1195 63.4576 58.3604 64.0143 58.3604C64.4472 58.3604 64.7906 58.1895 65.0445 57.8477C65.3017 57.5026 65.4303 56.9915 65.4303 56.3145ZM68.2674 59H67.3641V51.5H68.2674V59ZM71.71 59.0977C70.9938 59.0977 70.4111 58.8633 69.9619 58.3945C69.5127 57.9225 69.2881 57.2926 69.2881 56.5049V56.3389C69.2881 55.8148 69.3874 55.3477 69.5859 54.9375C69.7878 54.5241 70.0677 54.2018 70.4258 53.9707C70.7871 53.7363 71.1777 53.6191 71.5977 53.6191C72.2845 53.6191 72.8184 53.8454 73.1992 54.2979C73.5801 54.7503 73.7705 55.3981 73.7705 56.2412V56.6172H70.1914C70.2044 57.138 70.3558 57.5596 70.6455 57.8818C70.9385 58.2008 71.3096 58.3604 71.7588 58.3604C72.0778 58.3604 72.348 58.2952 72.5693 58.165C72.7907 58.0348 72.9844 57.8623 73.1504 57.6475L73.7021 58.0771C73.2594 58.7575 72.5954 59.0977 71.71 59.0977ZM71.5977 54.3613C71.2331 54.3613 70.9271 54.4948 70.6797 54.7617C70.4323 55.0254 70.2793 55.3965 70.2207 55.875H72.8672V55.8066C72.8411 55.3477 72.7174 54.9928 72.4961 54.7422C72.2747 54.4883 71.9753 54.3613 71.5977 54.3613ZM76.3928 55.6455L77.5646 53.7168H78.6193L76.8908 56.3291L78.673 59H77.6281L76.4074 57.0225L75.1867 59H74.1369L75.9191 56.3291L74.1906 53.7168H75.2355L76.3928 55.6455ZM82.5113 53.7168L82.5357 54.3027C82.9231 53.847 83.4456 53.6191 84.1031 53.6191C84.8421 53.6191 85.345 53.9023 85.6119 54.4688C85.7877 54.2148 86.0156 54.0098 86.2955 53.8535C86.5787 53.6973 86.9124 53.6191 87.2965 53.6191C88.4553 53.6191 89.0445 54.2327 89.0641 55.46V59H88.1607V55.5137C88.1607 55.1361 88.0745 54.8545 87.902 54.6689C87.7294 54.4801 87.4397 54.3857 87.0328 54.3857C86.6975 54.3857 86.4192 54.4867 86.1979 54.6885C85.9765 54.887 85.8479 55.1556 85.8121 55.4941V59H84.9039V55.5381C84.9039 54.7699 84.5279 54.3857 83.776 54.3857C83.1835 54.3857 82.7783 54.638 82.5602 55.1426V59H81.6568V53.7168H82.5113ZM92.4236 59.0977C91.7075 59.0977 91.1248 58.8633 90.6756 58.3945C90.2264 57.9225 90.0018 57.2926 90.0018 56.5049V56.3389C90.0018 55.8148 90.101 55.3477 90.2996 54.9375C90.5014 54.5241 90.7814 54.2018 91.1395 53.9707C91.5008 53.7363 91.8914 53.6191 92.3113 53.6191C92.9982 53.6191 93.532 53.8454 93.9129 54.2979C94.2937 54.7503 94.4842 55.3981 94.4842 56.2412V56.6172H90.9051C90.9181 57.138 91.0695 57.5596 91.3592 57.8818C91.6521 58.2008 92.0232 58.3604 92.4725 58.3604C92.7915 58.3604 93.0617 58.2952 93.283 58.165C93.5044 58.0348 93.698 57.8623 93.8641 57.6475L94.4158 58.0771C93.9731 58.7575 93.309 59.0977 92.4236 59.0977ZM92.3113 54.3613C91.9467 54.3613 91.6408 54.4948 91.3934 54.7617C91.146 55.0254 90.993 55.3965 90.9344 55.875H93.5809V55.8066C93.5548 55.3477 93.4311 54.9928 93.2098 54.7422C92.9884 54.4883 92.6889 54.3613 92.3113 54.3613ZM95.1143 56.3145C95.1143 55.5039 95.3063 54.8529 95.6904 54.3613C96.0745 53.8665 96.5775 53.6191 97.1992 53.6191C97.8177 53.6191 98.3076 53.8307 98.6689 54.2539V51.5H99.5723V59H98.7422L98.6982 58.4336C98.3369 58.8763 97.834 59.0977 97.1895 59.0977C96.5775 59.0977 96.0778 58.847 95.6904 58.3457C95.3063 57.8444 95.1143 57.1901 95.1143 56.3828V56.3145ZM96.0176 56.417C96.0176 57.016 96.1413 57.4847 96.3887 57.8232C96.6361 58.1618 96.9779 58.3311 97.4141 58.3311C97.987 58.3311 98.4053 58.0739 98.6689 57.5596V55.1328C98.3988 54.6348 97.9837 54.3857 97.4238 54.3857C96.9811 54.3857 96.6361 54.5566 96.3887 54.8984C96.1413 55.2402 96.0176 55.7464 96.0176 56.417ZM101.76 59H100.857V53.7168H101.76V59ZM100.783 52.3154C100.783 52.1689 100.827 52.0452 100.915 51.9443C101.006 51.8434 101.14 51.793 101.316 51.793C101.491 51.793 101.625 51.8434 101.716 51.9443C101.807 52.0452 101.853 52.1689 101.853 52.3154C101.853 52.4619 101.807 52.584 101.716 52.6816C101.625 52.7793 101.491 52.8281 101.316 52.8281C101.14 52.8281 101.006 52.7793 100.915 52.6816C100.827 52.584 100.783 52.4619 100.783 52.3154ZM105.129 58.3604C105.452 58.3604 105.733 58.2627 105.974 58.0674C106.215 57.8721 106.348 57.6279 106.374 57.335H107.229C107.213 57.6377 107.108 57.9258 106.916 58.1992C106.724 58.4727 106.467 58.6908 106.145 58.8535C105.826 59.0163 105.487 59.0977 105.129 59.0977C104.41 59.0977 103.837 58.8584 103.411 58.3799C102.987 57.8981 102.776 57.2406 102.776 56.4072V56.2559C102.776 55.7415 102.87 55.2842 103.059 54.8838C103.248 54.4834 103.518 54.1725 103.87 53.9512C104.224 53.7298 104.643 53.6191 105.124 53.6191C105.717 53.6191 106.208 53.7965 106.599 54.1514C106.993 54.5062 107.203 54.9668 107.229 55.5332H106.374C106.348 55.1914 106.218 54.9115 105.984 54.6934C105.753 54.472 105.466 54.3613 105.124 54.3613C104.665 54.3613 104.309 54.5273 104.055 54.8594C103.804 55.1882 103.679 55.665 103.679 56.29V56.4609C103.679 57.0697 103.804 57.5384 104.055 57.8672C104.306 58.196 104.664 58.3604 105.129 58.3604ZM111.306 59C111.254 58.8958 111.212 58.7103 111.179 58.4434C110.759 58.8796 110.258 59.0977 109.675 59.0977C109.155 59.0977 108.726 58.9512 108.391 58.6582C108.059 58.362 107.893 57.9876 107.893 57.5352C107.893 56.985 108.101 56.5586 108.518 56.2559C108.938 55.9499 109.527 55.7969 110.286 55.7969H111.165V55.3818C111.165 55.0661 111.07 54.8154 110.881 54.6299C110.693 54.4411 110.414 54.3467 110.046 54.3467C109.724 54.3467 109.454 54.4281 109.236 54.5908C109.018 54.7536 108.909 54.9505 108.909 55.1816H108.001C108.001 54.918 108.093 54.6641 108.279 54.4199C108.468 54.1725 108.722 53.9772 109.041 53.834C109.363 53.6908 109.716 53.6191 110.1 53.6191C110.709 53.6191 111.186 53.7721 111.531 54.0781C111.876 54.3809 112.055 54.7992 112.068 55.333V57.7646C112.068 58.2497 112.13 58.6354 112.254 58.9219V59H111.306ZM109.807 58.3115C110.09 58.3115 110.359 58.2383 110.613 58.0918C110.867 57.9453 111.051 57.7549 111.165 57.5205V56.4365H110.457C109.35 56.4365 108.796 56.7604 108.796 57.4082C108.796 57.6914 108.891 57.9128 109.08 58.0723C109.268 58.2318 109.511 58.3115 109.807 58.3115ZM114.265 59H113.362V51.5H114.265V59ZM120.872 57.5986C120.872 57.3545 120.779 57.1657 120.594 57.0322C120.412 56.8955 120.091 56.7783 119.632 56.6807C119.176 56.583 118.813 56.4658 118.543 56.3291C118.276 56.1924 118.078 56.0296 117.947 55.8408C117.821 55.652 117.757 55.4274 117.757 55.167C117.757 54.734 117.939 54.3678 118.304 54.0684C118.672 53.7689 119.14 53.6191 119.71 53.6191C120.309 53.6191 120.794 53.7738 121.165 54.083C121.54 54.3923 121.727 54.7878 121.727 55.2695H120.819C120.819 55.0221 120.713 54.8089 120.501 54.6299C120.293 54.4508 120.029 54.3613 119.71 54.3613C119.381 54.3613 119.124 54.4329 118.939 54.5762C118.753 54.7194 118.66 54.9066 118.66 55.1377C118.66 55.3558 118.747 55.5202 118.919 55.6309C119.092 55.7415 119.403 55.8473 119.852 55.9482C120.304 56.0492 120.67 56.1696 120.95 56.3096C121.23 56.4495 121.437 56.6188 121.571 56.8174C121.707 57.0127 121.776 57.252 121.776 57.5352C121.776 58.0072 121.587 58.3864 121.209 58.6729C120.832 58.9561 120.342 59.0977 119.739 59.0977C119.316 59.0977 118.942 59.0228 118.616 58.873C118.291 58.7233 118.035 58.515 117.85 58.248C117.668 57.9779 117.576 57.6865 117.576 57.374H118.48C118.496 57.6768 118.616 57.9176 118.841 58.0967C119.069 58.2725 119.368 58.3604 119.739 58.3604C120.081 58.3604 120.355 58.292 120.56 58.1553C120.768 58.0153 120.872 57.8298 120.872 57.5986ZM124.945 59.0977C124.229 59.0977 123.646 58.8633 123.197 58.3945C122.747 57.9225 122.523 57.2926 122.523 56.5049V56.3389C122.523 55.8148 122.622 55.3477 122.821 54.9375C123.023 54.5241 123.302 54.2018 123.661 53.9707C124.022 53.7363 124.412 53.6191 124.832 53.6191C125.519 53.6191 126.053 53.8454 126.434 54.2979C126.815 54.7503 127.005 55.3981 127.005 56.2412V56.6172H123.426C123.439 57.138 123.591 57.5596 123.88 57.8818C124.173 58.2008 124.544 58.3604 124.994 58.3604C125.313 58.3604 125.583 58.2952 125.804 58.165C126.025 58.0348 126.219 57.8623 126.385 57.6475L126.937 58.0771C126.494 58.7575 125.83 59.0977 124.945 59.0977ZM124.832 54.3613C124.468 54.3613 124.162 54.4948 123.914 54.7617C123.667 55.0254 123.514 55.3965 123.455 55.875H126.102V55.8066C126.076 55.3477 125.952 54.9928 125.731 54.7422C125.51 54.4883 125.21 54.3613 124.832 54.3613ZM130.409 54.5273C130.272 54.5046 130.124 54.4932 129.964 54.4932C129.372 54.4932 128.97 54.7454 128.758 55.25V59H127.855V53.7168H128.734L128.749 54.3271C129.045 53.8551 129.465 53.6191 130.008 53.6191C130.184 53.6191 130.318 53.6419 130.409 53.6875V54.5273ZM132.875 57.7744L134.183 53.7168H135.106L133.212 59H132.523L130.609 53.7168H131.532L132.875 57.7744ZM136.757 59H135.854V53.7168H136.757V59ZM135.78 52.3154C135.78 52.1689 135.824 52.0452 135.912 51.9443C136.003 51.8434 136.137 51.793 136.312 51.793C136.488 51.793 136.622 51.8434 136.713 51.9443C136.804 52.0452 136.85 52.1689 136.85 52.3154C136.85 52.4619 136.804 52.584 136.713 52.6816C136.622 52.7793 136.488 52.8281 136.312 52.8281C136.137 52.8281 136.003 52.7793 135.912 52.6816C135.824 52.584 135.78 52.4619 135.78 52.3154ZM140.126 58.3604C140.448 58.3604 140.73 58.2627 140.971 58.0674C141.212 57.8721 141.345 57.6279 141.371 57.335H142.226C142.21 57.6377 142.105 57.9258 141.913 58.1992C141.721 58.4727 141.464 58.6908 141.142 58.8535C140.823 59.0163 140.484 59.0977 140.126 59.0977C139.407 59.0977 138.834 58.8584 138.407 58.3799C137.984 57.8981 137.773 57.2406 137.773 56.4072V56.2559C137.773 55.7415 137.867 55.2842 138.056 54.8838C138.245 54.4834 138.515 54.1725 138.866 53.9512C139.221 53.7298 139.64 53.6191 140.121 53.6191C140.714 53.6191 141.205 53.7965 141.596 54.1514C141.99 54.5062 142.2 54.9668 142.226 55.5332H141.371C141.345 55.1914 141.215 54.9115 140.981 54.6934C140.75 54.472 140.463 54.3613 140.121 54.3613C139.662 54.3613 139.306 54.5273 139.052 54.8594C138.801 55.1882 138.676 55.665 138.676 56.29V56.4609C138.676 57.0697 138.801 57.5384 139.052 57.8672C139.303 58.196 139.661 58.3604 140.126 58.3604ZM145.234 59.0977C144.518 59.0977 143.935 58.8633 143.486 58.3945C143.037 57.9225 142.812 57.2926 142.812 56.5049V56.3389C142.812 55.8148 142.911 55.3477 143.11 54.9375C143.312 54.5241 143.592 54.2018 143.95 53.9707C144.311 53.7363 144.702 53.6191 145.121 53.6191C145.808 53.6191 146.342 53.8454 146.723 54.2979C147.104 54.7503 147.294 55.3981 147.294 56.2412V56.6172H143.715C143.728 57.138 143.88 57.5596 144.169 57.8818C144.462 58.2008 144.833 58.3604 145.283 58.3604C145.602 58.3604 145.872 58.2952 146.093 58.165C146.315 58.0348 146.508 57.8623 146.674 57.6475L147.226 58.0771C146.783 58.7575 146.119 59.0977 145.234 59.0977ZM145.121 54.3613C144.757 54.3613 144.451 54.4948 144.204 54.7617C143.956 55.0254 143.803 55.3965 143.745 55.875H146.391V55.8066C146.365 55.3477 146.241 54.9928 146.02 54.7422C145.799 54.4883 145.499 54.3613 145.121 54.3613ZM154.887 56.417C154.887 57.221 154.704 57.8688 154.336 58.3604C153.968 58.8519 153.47 59.0977 152.842 59.0977C152.2 59.0977 151.696 58.8942 151.328 58.4873V61.0312H150.425V53.7168H151.25L151.294 54.3027C151.662 53.847 152.173 53.6191 152.827 53.6191C153.462 53.6191 153.963 53.8584 154.331 54.3369C154.702 54.8154 154.887 55.4811 154.887 56.334V56.417ZM153.984 56.3145C153.984 55.7188 153.857 55.2484 153.603 54.9033C153.349 54.5583 153.001 54.3857 152.558 54.3857C152.012 54.3857 151.601 54.6283 151.328 55.1133V57.6377C151.598 58.1195 152.012 58.3604 152.568 58.3604C153.001 58.3604 153.345 58.1895 153.598 57.8477C153.856 57.5026 153.984 56.9915 153.984 56.3145ZM156.821 59H155.918V51.5H156.821V59ZM161.333 59C161.281 58.8958 161.239 58.7103 161.206 58.4434C160.786 58.8796 160.285 59.0977 159.702 59.0977C159.182 59.0977 158.753 58.9512 158.418 58.6582C158.086 58.362 157.92 57.9876 157.92 57.5352C157.92 56.985 158.128 56.5586 158.545 56.2559C158.965 55.9499 159.554 55.7969 160.313 55.7969H161.192V55.3818C161.192 55.0661 161.097 54.8154 160.908 54.6299C160.72 54.4411 160.441 54.3467 160.073 54.3467C159.751 54.3467 159.481 54.4281 159.263 54.5908C159.045 54.7536 158.936 54.9505 158.936 55.1816H158.028C158.028 54.918 158.12 54.6641 158.306 54.4199C158.495 54.1725 158.749 53.9772 159.068 53.834C159.39 53.6908 159.743 53.6191 160.127 53.6191C160.736 53.6191 161.213 53.7721 161.558 54.0781C161.903 54.3809 162.082 54.7992 162.095 55.333V57.7646C162.095 58.2497 162.157 58.6354 162.28 58.9219V59H161.333ZM159.834 58.3115C160.117 58.3115 160.386 58.2383 160.64 58.0918C160.894 57.9453 161.078 57.7549 161.192 57.5205V56.4365H160.484C159.377 56.4365 158.823 56.7604 158.823 57.4082C158.823 57.6914 158.918 57.9128 159.107 58.0723C159.295 58.2318 159.538 58.3115 159.834 58.3115ZM164.537 52.4375V53.7168H165.523V54.415H164.537V57.6914C164.537 57.903 164.58 58.0625 164.668 58.1699C164.756 58.2741 164.906 58.3262 165.118 58.3262C165.222 58.3262 165.365 58.3066 165.547 58.2676V59C165.31 59.0651 165.079 59.0977 164.854 59.0977C164.45 59.0977 164.146 58.9756 163.941 58.7314C163.736 58.4873 163.633 58.1406 163.633 57.6914V54.415H162.671V53.7168H163.633V52.4375H164.537ZM166.827 59V54.415H165.992V53.7168H166.827V53.1748C166.827 52.6084 166.978 52.1706 167.281 51.8613C167.584 51.5521 168.012 51.3975 168.565 51.3975C168.773 51.3975 168.98 51.4251 169.185 51.4805L169.136 52.2129C168.983 52.1836 168.821 52.1689 168.648 52.1689C168.355 52.1689 168.129 52.2552 167.969 52.4277C167.81 52.597 167.73 52.8411 167.73 53.1602V53.7168H168.858V54.415H167.73V59H166.827ZM169.42 56.3096C169.42 55.792 169.521 55.3265 169.722 54.9131C169.928 54.4997 170.211 54.1807 170.572 53.9561C170.937 53.7314 171.352 53.6191 171.817 53.6191C172.537 53.6191 173.118 53.8682 173.56 54.3662C174.006 54.8643 174.229 55.5267 174.229 56.3535V56.417C174.229 56.9313 174.13 57.3936 173.931 57.8037C173.736 58.2106 173.455 58.528 173.087 58.7559C172.722 58.9837 172.302 59.0977 171.827 59.0977C171.111 59.0977 170.53 58.8486 170.084 58.3506C169.641 57.8525 169.42 57.1934 169.42 56.373V56.3096ZM170.328 56.417C170.328 57.0029 170.463 57.4733 170.733 57.8281C171.007 58.1829 171.371 58.3604 171.827 58.3604C172.286 58.3604 172.651 58.1813 172.921 57.8232C173.191 57.4619 173.326 56.9574 173.326 56.3096C173.326 55.7301 173.188 55.2614 172.911 54.9033C172.637 54.542 172.273 54.3613 171.817 54.3613C171.371 54.3613 171.012 54.5387 170.738 54.8936C170.465 55.2484 170.328 55.7562 170.328 56.417ZM177.716 54.5273C177.579 54.5046 177.431 54.4932 177.271 54.4932C176.679 54.4932 176.277 54.7454 176.065 55.25V59H175.162V53.7168H176.041L176.056 54.3271C176.352 53.8551 176.772 53.6191 177.315 53.6191C177.491 53.6191 177.625 53.6419 177.716 53.6875V54.5273ZM179.2 53.7168L179.225 54.3027C179.612 53.847 180.135 53.6191 180.792 53.6191C181.531 53.6191 182.034 53.9023 182.301 54.4688C182.477 54.2148 182.705 54.0098 182.985 53.8535C183.268 53.6973 183.601 53.6191 183.986 53.6191C185.144 53.6191 185.734 54.2327 185.753 55.46V59H184.85V55.5137C184.85 55.1361 184.764 54.8545 184.591 54.6689C184.418 54.4801 184.129 54.3857 183.722 54.3857C183.387 54.3857 183.108 54.4867 182.887 54.6885C182.666 54.887 182.537 55.1556 182.501 55.4941V59H181.593V55.5381C181.593 54.7699 181.217 54.3857 180.465 54.3857C179.873 54.3857 179.467 54.638 179.249 55.1426V59H178.346V53.7168H179.2Z" fill="black"/>
<path opacity="0.5" d="M43.0361 87.8906L45.3604 93.6914L47.6846 87.8906H48.9004V95H47.9629V92.2314L48.0508 89.2432L45.7168 95H44.999L42.6699 89.2578L42.7627 92.2314V95H41.8252V87.8906H43.0361ZM49.9748 92.3096C49.9748 91.792 50.0757 91.3265 50.2775 90.9131C50.4826 90.4997 50.7658 90.1807 51.1271 89.9561C51.4917 89.7314 51.9068 89.6191 52.3723 89.6191C53.0917 89.6191 53.6727 89.8682 54.1154 90.3662C54.5614 90.8643 54.7844 91.5267 54.7844 92.3535V92.417C54.7844 92.9313 54.6851 93.3936 54.4865 93.8037C54.2912 94.2106 54.0096 94.528 53.6418 94.7559C53.2772 94.9837 52.8573 95.0977 52.382 95.0977C51.6659 95.0977 51.0848 94.8486 50.6389 94.3506C50.1962 93.8525 49.9748 93.1934 49.9748 92.373V92.3096ZM50.883 92.417C50.883 93.0029 51.0181 93.4733 51.2883 93.8281C51.5617 94.1829 51.9263 94.3604 52.382 94.3604C52.841 94.3604 53.2056 94.1813 53.4758 93.8232C53.746 93.4619 53.8811 92.9574 53.8811 92.3096C53.8811 91.7301 53.7427 91.2614 53.466 90.9033C53.1926 90.542 52.828 90.3613 52.3723 90.3613C51.9263 90.3613 51.5666 90.5387 51.2932 90.8936C51.0197 91.2484 50.883 91.7562 50.883 92.417ZM58.2709 90.5273C58.1342 90.5046 57.9861 90.4932 57.8266 90.4932C57.2341 90.4932 56.8321 90.7454 56.6205 91.25V95H55.7172V89.7168H56.5961L56.6107 90.3271C56.907 89.8551 57.3269 89.6191 57.8705 89.6191C58.0463 89.6191 58.1798 89.6419 58.2709 89.6875V90.5273ZM61.0006 95.0977C60.2844 95.0977 59.7018 94.8633 59.2525 94.3945C58.8033 93.9225 58.5787 93.2926 58.5787 92.5049V92.3389C58.5787 91.8148 58.678 91.3477 58.8766 90.9375C59.0784 90.5241 59.3583 90.2018 59.7164 89.9707C60.0777 89.7363 60.4684 89.6191 60.8883 89.6191C61.5751 89.6191 62.109 89.8454 62.4898 90.2979C62.8707 90.7503 63.0611 91.3981 63.0611 92.2412V92.6172H59.482C59.4951 93.138 59.6464 93.5596 59.9361 93.8818C60.2291 94.2008 60.6002 94.3604 61.0494 94.3604C61.3684 94.3604 61.6386 94.2952 61.86 94.165C62.0813 94.0348 62.275 93.8623 62.441 93.6475L62.9928 94.0771C62.5501 94.7575 61.886 95.0977 61.0006 95.0977ZM60.8883 90.3613C60.5237 90.3613 60.2177 90.4948 59.9703 90.7617C59.7229 91.0254 59.5699 91.3965 59.5113 91.875H62.1578V91.8066C62.1318 91.3477 62.0081 90.9928 61.7867 90.7422C61.5654 90.4883 61.2659 90.3613 60.8883 90.3613Z" fill="black"/>
<g opacity="0.5" clip-path="url(#clip0)">
<path d="M70.5484 92.3628L67.7779 90.054C67.6861 89.9802 67.54 89.9823 67.4514 90.0587C67.365 90.1333 67.365 90.2515 67.4514 90.3261L70.0587 92.4988L67.4514 94.6716C67.3613 94.7467 67.3613 94.8685 67.4514 94.9437C67.5416 95.0188 67.6877 95.0188 67.7779 94.9437L70.5484 92.6349C70.6386 92.5597 70.6386 92.4379 70.5484 92.3628Z" fill="black"/>
</g>
<defs>
<filter id="filter0_d" x="172" y="3" width="143" height="115.959" filterUnits="userSpaceOnUse" color-interpolation-filters="sRGB">
<feFlood flood-opacity="0" result="BackgroundImageFix"/>
<feColorMatrix in="SourceAlpha" type="matrix" values="0 0 0 0 0 0 0 0 0 0 0 0 0 0 0 0 0 0 127 0"/>
<feOffset/>
<feGaussianBlur stdDeviation="7.5"/>
<feColorMatrix type="matrix" values="0 0 0 0 0 0 0 0 0 0 0 0 0 0 0 0 0 0 0.5 0"/>
<feBlend mode="normal" in2="BackgroundImageFix" result="effect1_dropShadow"/>
<feBlend mode="normal" in="SourceGraphic" in2="effect1_dropShadow" result="shape"/>
</filter>
<clipPath id="clip0">
<rect width="6" height="5" fill="white" transform="translate(66 90)"/>
</clipPath>
</defs>
</svg>
